Coordinates
version=1
nRows=29
nColumns=24
inDegrees=yes

Units are S.I. units (second, meters, Newtons, ...)
Angles are in degrees.

endheader
time	pelvis_tilt	pelvis_list	pelvis_rotation	pelvis_tx	pelvis_ty	pelvis_tz	hip_flexion_r	hip_adduction_r	hip_rotation_r	knee_angle_r	ankle_angle_r	subtalar_angle_r	mtp_angle_r	hip_flexion_l	hip_adduction_l	hip_rotation_l	knee_angle_l	ankle_angle_l	subtalar_angle_l	mtp_angle_l	lumbar_extension	lumbar_bending	lumbar_rotation
      4.63500000	     36.56625725	      1.23675424	      3.38019097	     -0.51448017	      0.65383055	     -0.30048128	    -53.00926392	      2.89516902	     -5.92283753	    -15.71013127	     21.84459487	      9.36065529	      0.00000000	    -13.23673514	     -0.27613635	     -8.51351162	     -4.68142275	      7.48713369	     18.68300338	      0.00000000	    -63.44144540	      0.75258071	      2.16488835
      4.64000000	     36.74085965	      1.06765710	      2.95962004	     -0.50867010	      0.65385793	     -0.30082810	    -52.90004760	      2.54159759	     -5.53118284	    -17.24913588	     21.16455253	      9.43412577	      0.00000000	    -13.53022124	     -0.34679539	     -8.53698678	     -5.25272243	      7.30175706	     18.90297612	      0.00000000	    -63.50330989	      0.48257118	      2.45919317
      4.64500000	     36.91856718	      1.09318629	      2.73887582	     -0.50281150	      0.65388075	     -0.30129877	    -52.78788704	      2.19848952	     -5.54941006	    -18.83810311	     20.35103411	      9.63963253	      0.00000000	    -13.75872489	     -0.25688746	     -8.27652760	     -6.01208747	      7.00972224	     18.88898092	      0.00000000	    -63.56090448	      0.24116811	      2.42171418
      4.65000000	     37.11724470	      1.13144238	      2.52993303	     -0.49697705	      0.65397147	     -0.30178731	    -52.61422924	      1.84236075	     -5.63296549	    -20.55151443	     19.39255811	      9.85369887	      0.00000000	    -13.98291361	     -0.15281958	     -8.01938993	     -6.88477594	      6.69296525	     18.84690836	      0.00000000	    -63.64680075	      0.00754520	      2.35185793
      4.65500000	     37.33114440	      1.17079556	      2.29996034	     -0.49116243	      0.65413246	     -0.30228976	    -52.36887772	      1.45085134	     -5.74176012	    -22.38343923	     18.27859723	     10.05841332	      0.00000000	    -14.19033581	     -0.03295312	     -7.74472228	     -7.88193498	      6.37229847	     18.69321933	      0.00000000	    -63.74917482	     -0.23163909	      2.30183108
      4.66000000	     37.49691143	      1.16347434	      2.06763414	     -0.48542145	      0.65430183	     -0.30285189	    -51.94579057	      1.07166431	     -5.81481253	    -24.38479667	     17.03984000	     10.15504723	      0.00000000	    -14.29060806	      0.06671571	     -7.31608524	     -9.01175347	      6.13030141	     18.21122734	      0.00000000	    -63.81664580	     -0.44896601	      2.38053687
      4.66500000	     37.65351824	      1.20759662	      1.88626761	     -0.47966596	      0.65451841	     -0.30342153	    -51.45922827	      0.68543937	     -6.00383750	    -26.43925307	     15.61963827	     10.21481037	      0.00000000	    -14.36402612	      0.20558413	     -6.91898555	    -10.20056865	      5.86929173	     17.85215473	      0.00000000	    -63.87593415	     -0.64803512	      2.32359106
      4.67000000	     37.81689781	      1.27273179	      1.72921899	     -0.47393449	      0.65477004	     -0.30404528	    -50.90344471	      0.28219266	     -6.25910780	    -28.57799052	     14.02741111	     10.20768439	      0.00000000	    -14.43571941	      0.37726326	     -6.48731363	    -11.42200351	      5.65348293	     17.41290946	      0.00000000	    -63.94872929	     -0.83103179	      2.23871135
      4.67500000	     37.97103023	      1.33819640	      1.58643769	     -0.46822493	      0.65505393	     -0.30471099	    -50.26734640	     -0.13388516	     -6.57037741	    -30.77161254	     12.28276133	     10.10225551	      0.00000000	    -14.48921897	      0.56206392	     -6.01249056	    -12.67381341	      5.49759509	     16.90446429	      0.00000000	    -64.01093635	     -0.98983059	      2.13205861
      4.68000000	     38.11880368	      1.43094996	      1.47974771	     -0.46254066	      0.65535558	     -0.30541070	    -49.55943635	     -0.55305520	     -6.91272405	    -33.01517511	     10.40410613	      9.88021447	      0.00000000	    -14.54620487	      0.78137974	     -5.52172821	    -13.90771247	      5.40594884	     16.33300243	      0.00000000	    -64.07708199	     -1.13202584	      2.01403074
      4.68500000	     38.08148980	      1.47621636	      1.51908077	     -0.45692131	      0.65555638	     -0.30629407	    -48.57233593	     -0.86930731	     -7.36931761	    -35.31282926	      8.42564216	      9.60699730	      0.00000000	    -14.33628337	      0.93301745	     -4.88330106	    -15.25029995	      5.50104442	     15.76963879	      0.00000000	    -63.97114928	     -1.10426915	      1.83023958
      4.69000000	     38.30926076	      1.63228047	      1.35428495	     -0.45124462	      0.65597685	     -0.30697386	    -47.85975762	     -1.40956227	     -7.74481425	    -37.55915226	      6.38826398	      9.10285810	      0.00000000	    -14.58120721	      1.26013819	     -4.46159058	    -16.32262697	      5.48340453	     15.14030251	      0.00000000	    -64.11633788	     -1.31908078	      1.68608912
      4.69500000	     38.45854473	      1.73745993	      1.25348335	     -0.44564482	      0.65635944	     -0.30777793	    -47.00348664	     -1.88847346	     -8.13673883	    -39.80408207	      4.32978754	      8.43872681	      0.00000000	    -14.72246507	      1.54044170	     -3.95090718	    -17.42542165	      5.61659980	     14.44772806	      0.00000000	    -64.19283385	     -1.41593786	      1.55896806
      4.70000000	     38.35376421	      1.78392559	      1.34746316	     -0.44016457	      0.65659281	     -0.30872245	    -45.79446071	     -2.19666765	     -8.59415786	    -42.08698531	      2.29939289	      7.69114833	      0.00000000	    -14.54084643	      1.71827862	     -3.28815696	    -18.57324174	      5.94710909	     13.82416695	      0.00000000	    -64.04698163	     -1.33763779	      1.39284397
      4.70500000	     38.49970335	      1.94109094	      1.22707846	     -0.43460798	      0.65703678	     -0.30949875	    -44.87690224	     -2.74257018	     -8.98525286	    -44.25711223	      0.40996715	      6.76682560	      0.00000000	    -14.80470052	      2.07261622	     -2.83130150	    -19.44459751	      6.17337427	     13.17216058	      0.00000000	    -64.12671233	     -1.48176731	      1.21229481
      4.71000000	     38.47408942	      2.02580845	      1.23740389	     -0.42917665	      0.65739710	     -0.31042410	    -43.71842251	     -3.15239780	     -9.39063385	    -46.40860124	     -1.37612881	      5.73852093	      0.00000000	    -14.86851950	      2.32370657	     -2.36138634	    -20.31346213	      6.56744383	     12.56798627	      0.00000000	    -64.05739110	     -1.44364198	      1.06529232
      4.71500000	     38.62616773	      2.21491045	      1.10584736	     -0.42371654	      0.65792230	     -0.31115182	    -42.77775147	     -3.73450174	     -9.77678036	    -48.44501700	     -2.87222818	      4.64991401	      0.00000000	    -15.27324435	      2.70991012	     -2.02060323	    -20.92306747	      6.85914662	     11.97539005	      0.00000000	    -64.15819643	     -1.60692624	      0.83656715
      4.72000000	     38.70493240	      2.35787369	      1.04049022	     -0.41837661	      0.65843321	     -0.31195908	    -41.72224767	     -4.22051787	    -10.11096051	    -50.42777065	     -4.17559626	      3.45107863	      0.00000000	    -15.62004653	      3.03428817	     -1.66692691	    -21.47218145	      7.25028386	     11.42493828	      0.00000000	    -64.20482516	     -1.66937090	      0.65640011
      4.72500000	     38.56927476	      2.41044700	      1.05150180	     -0.41313595	      0.65885884	     -0.31282204	    -40.37805359	     -4.56749115	    -10.36128744	    -52.38462025	     -5.21147931	      2.25798244	      0.00000000	    -15.72999076	      3.24251037	     -1.28053152	    -22.00998747	      7.79329487	     11.01831110	      0.00000000	    -64.05255595	     -1.60860549	      0.53039021
      4.73000000	     38.59109907	      2.55305291	      0.99209251	     -0.40790746	      0.65943755	     -0.31356186	    -39.24576093	     -5.01529390	    -10.61700502	    -54.19833842	     -5.91055614	      1.10211499	      0.00000000	    -16.12923910	      3.54571268	     -1.00192523	    -22.32836213	      8.24251202	     10.61470748	      0.00000000	    -64.05418940	     -1.66056422	      0.31981968
      4.73500000	     38.69187226	      2.73922312	      0.92812085	     -0.40272826	      0.66012210	     -0.31424466	    -38.22853061	     -5.48170798	    -10.87873464	    -55.87841723	     -6.26694443	      0.02607493	      0.00000000	    -16.69347182	      3.87413573	     -0.78294853	    -22.48906883	      8.64521037	     10.30032074	      0.00000000	    -64.14091622	     -1.74420828	      0.02947024
      4.74000000	     38.58348938	      2.79134188	      0.90425900	     -0.39769629	      0.66073651	     -0.31493108	    -36.90792027	     -5.77154998	    -10.98804663	    -57.53068630	     -6.39606928	     -1.04135802	      0.00000000	    -17.01223738	      4.04762970	     -0.57374069	    -22.65851885	      9.17322721	     10.08703152	      0.00000000	    -64.04142425	     -1.70912003	     -0.10464027
      4.74500000	     38.70802822	      2.95638190	      0.89070722	     -0.39261409	      0.66154829	     -0.31553362	    -35.95124476	     -6.11925615	    -11.18683362	    -58.95414254	     -6.11429683	     -1.89496777	      0.00000000	    -17.70339861	      4.30256993	     -0.37173735	    -22.61394142	      9.61908773	      9.95385666	      0.00000000	    -64.15119971	     -1.73547284	     -0.43105588
      4.75000000	     38.69219631	      3.08215658	      0.89480700	     -0.38771150	      0.66235463	     -0.31612716	    -34.77982309	     -6.41286312	    -11.34125501	    -60.33752335	     -5.78621142	     -2.74183176	      0.00000000	    -18.23224984	      4.49577647	     -0.26326304	    -22.54387653	      9.99061218	      9.88557332	      0.00000000	    -64.16625229	     -1.72528287	     -0.69218524
      4.75500000	     38.52840780	      3.09633431	      0.91312975	     -0.38291181	      0.66310364	     -0.31668882	    -33.40266407	     -6.55445308	    -11.34663381	    -61.65237947	     -5.13478504	     -3.35053977	      0.00000000	    -18.58995950	      4.56184814	     -0.16122757	    -22.47594833	     10.47229768	      9.93842169	      0.00000000	    -64.04367599	     -1.64477435	     -0.83525210
      4.76000000	     38.58517097	      3.21071901	      0.98405005	     -0.37809366	      0.66405479	     -0.31719974	    -32.37281138	     -6.72619460	    -11.48677911	    -62.72955616	     -4.35205243	     -3.84440917	      0.00000000	    -19.27430133	      4.67781745	     -0.04419860	    -22.24690743	     10.84450014	     10.05758828	      0.00000000	    -64.13070931	     -1.58181698	     -1.14385479
      4.76500000	     38.60037469	      3.28146402	      1.08259902	     -0.37325781	      0.66504714	     -0.31767383	    -31.32037113	     -6.80900555	    -11.59267262	    -63.65989574	     -3.41270828	     -4.18177042	      0.00000000	    -19.94609735	      4.72145112	      0.05784168	    -21.95449815	     11.22946871	     10.24079676	      0.00000000	    -64.16020351	     -1.47207186	     -1.42829843
      4.77000000	     38.58354917	      3.33498501	      1.20266302	     -0.36855996	      0.66603509	     -0.31814251	    -30.21910448	     -6.85174987	    -11.68611574	    -64.49706937	     -2.39651195	     -4.33712909	      0.00000000	    -20.57078590	      4.72564394	      0.13458625	    -21.65701002	     11.59781245	     10.50086464	      0.00000000	    -64.18748028	     -1.33647046	     -1.69528772
      4.77500000	     38.54803213	      3.36908321	      1.34832705	     -0.36393307	      0.66704080	     -0.31858397	    -29.10668171	     -6.84264565	    -11.77349182	    -65.21022113	     -1.32765421	     -4.35059186	      0.00000000	    -21.17860589	      4.68515315	      0.20326713	    -21.33425175	     11.93801821	     10.80439999	      0.00000000	    -64.21367966	     -1.17334467	     -1.94598482
